<svg width="16" height="16" viewBox="0 0 16 16" fill="none" xmlns="http://www.w3.org/2000/svg">
<path fill-rule="evenodd" clip-rule="evenodd" d="M3.49852 1H3.5H10.25H10.2514C10.8473 1.0017 11.4182 1.23914 11.8395 1.66047C12.2609 2.08179 12.4983 2.65274 12.5 3.24858C12.5 3.25252 12.5 3.25647 12.4999 3.26041L12.4949 3.5H12.7188C13.9786 3.5 15 4.52135 15 5.78125V12.7188C15 13.9786 13.9786 15 12.7188 15H5.78125C4.52135 15 3.5 13.9786 3.5 12.7188V12.5H3.25H3.24858C2.65274 12.4983 2.08179 12.2609 1.66047 11.8395C1.23914 11.4182 1.0017 10.8473 1 10.2514V10.25V3.5V3.49852C1.00196 2.83648 1.26582 2.2021 1.73396 1.73396C2.2021 1.26582 2.83648 1.00196 3.49852 1ZM4.5 12.7188C4.5 13.4264 5.07364 14 5.78125 14H12.7188C13.4264 14 14 13.4264 14 12.7188V5.78125C14 5.07364 13.4264 4.5 12.7188 4.5H11.9861C11.9851 4.5 11.9841 4.5 11.9831 4.5H5.78125C5.07364 4.5 4.5 5.07364 4.5 5.78125V12.7188ZM11.4947 3.5H5.78125C4.52135 3.5 3.5 4.52135 3.5 5.78125V11.5H3.25081C2.91942 11.4989 2.60191 11.3668 2.36757 11.1324C2.13324 10.8981 2.00111 10.5806 2 10.2492V3.50079C2.00136 3.10319 2.1599 2.72224 2.44107 2.44107C2.72224 2.1599 3.10319 2.00136 3.50079 2H10.2492C10.5806 2.00111 10.8981 2.13324 11.1324 2.36757C11.3656 2.60078 11.4976 2.91636 11.5 3.24601L11.4947 3.5Z" fill="#ECECEC"/>
</svg>
